<svg width="40" height="40" viewBox="0 0 40 40" fill="none" xmlns="http://www.w3.org/2000/svg">
<path d="M20.0001 23.3334L19.293 24.0405L20.0001 24.7476L20.7072 24.0405L20.0001 23.3334ZM21.0001 8.33337C21.0001 7.78109 20.5524 7.33337 20.0001 7.33337C19.4478 7.33337 19.0001 7.78109 19.0001 8.33337L21.0001 8.33337ZM10.9596 15.7071L19.293 24.0405L20.7072 22.6263L12.3739 14.2929L10.9596 15.7071ZM20.7072 24.0405L29.0405 15.7071L27.6263 14.2929L19.293 22.6263L20.7072 24.0405ZM21.0001 23.3334L21.0001 8.33337L19.0001 8.33337L19.0001 23.3334L21.0001 23.3334Z" fill="#33363F"/>
<path d="M8.33325 26.6666L8.33325 28.3333C8.33325 30.1742 9.82564 31.6666 11.6666 31.6666L28.3333 31.6666C30.1742 31.6666 31.6666 30.1742 31.6666 28.3333V26.6666" stroke="#33363F" stroke-width="2"/>
</svg>
